<?xml version="1.0" encoding="UTF-8"?>
<svg id="Layer_2" xmlns="http://www.w3.org/2000/svg" viewBox="0 0 240.76 197.8">
  <defs>
    <style>
      .cls-1 {
        fill: #001737;
      }
    </style>
  </defs>
  <g id="Layer_1-2" data-name="Layer_1">
    <g>
      <path class="cls-1" d="M0,0c22.35,0,70.96.58,92.09.67,36.59.16,86.68,38.87,86.26,86.98-.08,9.62.1,18.34-1.96,31.37s-10.87,24.24-10.87,24.24c-31.37,16.4-44.65-17.15-44.09-18.53.64-1.59,17.24-36.59-3.91-60.83-11.29-12.94-43.95-12.43-66.59-12.64,0,0-.06,42.47-.06,61.58,0,8.79-.12,21.34-.08,30.07h15.32c3.71,21.03,21.53,40.46,37.75,51.62-29.36,0-103.76-.11-103.76-.11.01-26.89,0-58.27,0-85.15C.1,74.43.17,34.84,0,0"/>
      <path class="cls-1" d="M176.57,47.99c-16.51-24.37-21.64-28.59-48.67-47.16h112.86s-.06,70.21-.19,102.67c-.08,20.29-2.87,40.09-13.99,58.16-13.84,22.47-35.4,33.62-62.73,35.69-14.88,1.12-29.81.36-43.92-4.7-23.86-8.56-39.35-24.76-47.53-46.8-4.62-12.44-5.5-32.61-5.84-46.6h43.75c.1,8.44,4.27,27.88,7.45,35.85,3.54,8.89,16.05,18.05,27.49,19.58,7.01.94,33.9,1.25,42.55-22.63,3.14-8.68,2.35-11.41,2.44-27.46.1-17.54-.04-17.68,0-56.58"/>
    </g>
  </g>
</svg>